{"title":"Paramparca S01E77 DVB-T By Ari Gr Subs (Ragismenes Kardies)","uid":13419148,"size":378658112,"categoryP":"video","categoryS":"tv_shows","magnet":"?xt=urn:btih:6097e2e92a8ffbea2fe8b921f54564f8dffcfd41&amp;dn=Paramparca+S01E77+DVB-T+By+Ari+Gr+Subs+%28Ragismenes+Kardies%29&amp;tr=udp%3A%2F%2Ftracker.leechers-paradise.org%3A6969&amp;tr=udp%3A%2F%2Fzer0day.ch%3A1337&amp;tr=udp%3A%2F%2Fopen.demonii.com%3A1337&amp;tr=udp%3A%2F%2Ftracker.coppersurfer.tk%3A6969&amp;tr=udp%3A%2F%2Fexodus.desync.com%3A6969","seeders":1,"leechers":0,"uploader":"Aris2015","files":1,"time":1454532091,"description":"General \r\nComplete name : Paramparca S01E77 DVB-T By Ari.mp4 \r\nFormat : MPEG-4 \r\nFormat profile : Base Media \r\nCodec ID : isom (isom/iso2/avc1/mp41) \r\nFile size : 361 MiB \r\nDuration : 44mn 32s \r\nOverall bit rate mode : Variable \r\nOverall bit rate : 1 134 Kbps \r\nMovie name : Paramparca S01E77.DVB-T.X264 \r\nPerformer : ARI \r\nGenre : DRAMA \r\nEncoded date : UTC 2016-02-02 23:35:09 \r\nTagged date : UTC 2016-02-02 23:35:09 \r\nWriting application : Lavf57.22.100 \r\n\r\nVideo \r\nID : 1 \r\nFormat : AVC \r\nFormat/Info : Advanced Video Codec \r\nFormat profile :    \r\nFormat settings, CABAC : Yes \r\nFormat settings, ReFrames : 16 frames \r\nCodec ID : avc1 \r\nCodec ID/Info : Advanced Video Coding \r\nDuration : 44mn 32s \r\nBit rate mode : Variable \r\nBit rate : 1 000 Kbps \r\nMaximum bit rate : 17.5 Mbps \r\nWidth : 720 pixels \r\nHeight : 576 pixels \r\nDisplay aspect ratio : 16:9 \r\nFrame rate mode : Constant \r\nFrame rate : 25.000 fps \r\nStandard : PAL \r\nColor space : YUV \r\nChroma subsampling : 4:2:0 \r\nBit depth : 8 bits \r\nScan type : Progressive \r\nBits/(Pixel*Frame) : 0.096 \r\nStream size : 319 MiB (88%) \r\nWriting library : x264 core 148 r2665 \r\n\r\n\r\nAudio \r\nID : 2 \r\nFormat : AAC \r\nFormat/Info : Advanced Audio Codec \r\nFormat profile : LC \r\nCodec ID : 40 \r\nDuration : 44mn 32s \r\nDuration_LastFrame : -19ms \r\nBit rate mode : Constant \r\nBit rate : 128 Kbps \r\nChannel(s) : 2 channels \r\nChannel positions : Front: L R \r\nSampling rate : 48.0 KHz \r\nFrame rate : 46.875 fps (1024 spf) \r\nCompression mode : Lossy \r\nStream size : 40.8 MiB (11%) \r\nLanguage : Turkish \r\nDefault : Yes","torrent":{"xt":"urn:btih:6097e2e92a8ffbea2fe8b921f54564f8dffcfd41","amp;dn":"Paramparca+S01E77+DVB-T+By+Ari+Gr+Subs+%28Ragismenes+Kardies%29","amp;tr":["udp%3A%2F%2Ftracker.leechers-paradise.org%3A6969","udp%3A%2F%2Fzer0day.ch%3A1337","udp%3A%2F%2Fopen.demonii.com%3A1337","udp%3A%2F%2Ftracker.coppersurfer.tk%3A6969","udp%3A%2F%2Fexodus.desync.com%3A6969"],"infoHash":"6097e2e92a8ffbea2fe8b921f54564f8dffcfd41","infoHashBuffer":{"type":"Buffer","data":[96,151,226,233,42,143,251,234,47,232,185,33,245,69,100,248,223,252,253,65]},"announce":[],"urlList":[]}}